<!-- Created by Gajah Mada Studio from the Noun Project -->
<svg
  xmlns:dc="http://purl.org/dc/elements/1.1/"
  xmlns:cc="http://creativecommons.org/ns#"
  xmlns:rdf="http://www.w3.org/1999/02/22-rdf-syntax-ns#"
  xmlns:svg="http://www.w3.org/2000/svg"
  xmlns="http://www.w3.org/2000/svg"
  xmlns:sodipodi="http://sodipodi.sourceforge.net/DTD/sodipodi-0.dtd"
  xmlns:inkscape="http://www.inkscape.org/namespaces/inkscape"
  viewBox="0 0 16.933333 21.1666675"
  version="1.1"
  x="0px"
  y="0px"
>
  <g transform="translate(0,-280.06664)">
    <path
      style="
        color: #d400a6;
        font-style: normal;
        font-variant: normal;
        font-weight: normal;
        font-stretch: normal;
        font-size: medium;
        line-height: normal;
        font-family: sans-serif;
        font-variant-ligatures: normal;
        font-variant-position: normal;
        font-variant-caps: normal;
        font-variant-numeric: normal;
        font-variant-alternates: normal;
        font-feature-settings: normal;
        text-indent: 0;
        text-align: start;
        text-decoration: none;
        text-decoration-line: none;
        text-decoration-style: solid;
        text-decoration-color: #d400a6;
        letter-spacing: normal;
        word-spacing: normal;
        text-transform: none;
        writing-mode: lr-tb;
        direction: ltr;
        text-orientation: mixed;
        dominant-baseline: auto;
        baseline-shift: baseline;
        text-anchor: start;
        white-space: normal;
        shape-padding: 0;
        clip-rule: nonzero;
        display: inline;
        overflow: visible;
        visibility: visible;
        opacity: 1;
        isolation: auto;
        mix-blend-mode: normal;
        color-interpolation: sRGB;
        color-interpolation-filters: linearRGB;
        solid-color: #d400a6;
        solid-opacity: 1;
        vector-effect: none;
        fill: #d400a6;
        fill-opacity: 1;
        fill-rule: nonzero;
        stroke: none;
        stroke-width: 1.0583334;
        stroke-linecap: round;
        stroke-linejoin: round;
        stroke-miterlimit: 4;
        stroke-dasharray: none;
        stroke-dashoffset: 0;
        stroke-opacity: 1;
        color-rendering: auto;
        image-rendering: auto;
        shape-rendering: auto;
        text-rendering: auto;
        enable-background: accumulate;
      "
      d="M 1.0507812,280.58789 A 0.52921962,0.52921962 0 0 0 0.52929688,281.125 v 14.81641 A 0.52921962,0.52921962 0 0 0 1.0585938,296.4707 H 15.875 a 0.529295,0.529295 0 1 0 0,-1.05859 H 1.5878906 V 281.125 a 0.52921962,0.52921962 0 0 0 -0.5371094,-0.53711 z"
    />
    <path
      style="
        color: #d400a6;
        font-style: normal;
        font-variant: normal;
        font-weight: normal;
        font-stretch: normal;
        font-size: medium;
        line-height: normal;
        font-family: sans-serif;
        font-variant-ligatures: normal;
        font-variant-position: normal;
        font-variant-caps: normal;
        font-variant-numeric: normal;
        font-variant-alternates: normal;
        font-feature-settings: normal;
        text-indent: 0;
        text-align: start;
        text-decoration: none;
        text-decoration-line: none;
        text-decoration-style: solid;
        text-decoration-color: #d400a6;
        letter-spacing: normal;
        word-spacing: normal;
        text-transform: none;
        writing-mode: lr-tb;
        direction: ltr;
        text-orientation: mixed;
        dominant-baseline: auto;
        baseline-shift: baseline;
        text-anchor: start;
        white-space: normal;
        shape-padding: 0;
        clip-rule: nonzero;
        display: inline;
        overflow: visible;
        visibility: visible;
        opacity: 1;
        isolation: auto;
        mix-blend-mode: normal;
        color-interpolation: sRGB;
        color-interpolation-filters: linearRGB;
        solid-color: #d400a6;
        solid-opacity: 1;
        vector-effect: none;
        fill: #d400a6;
        fill-opacity: 1;
        fill-rule: nonzero;
        stroke: none;
        stroke-width: 1.0583334;
        stroke-linecap: round;
        stroke-linejoin: round;
        stroke-miterlimit: 4;
        stroke-dasharray: none;
        stroke-dashoffset: 0;
        stroke-opacity: 1;
        paint-order: stroke fill markers;
        color-rendering: auto;
        image-rendering: auto;
        shape-rendering: auto;
        text-rendering: auto;
        enable-background: accumulate;
      "
      d="m 14.816667,282.18331 c -0.870484,0 -1.5875,0.71702 -1.5875,1.5875 0,0.066 0.0054,0.13079 0.01344,0.19482 l -1.561662,0.78083 c -0.286114,-0.27546 -0.673298,-0.44649 -1.097607,-0.44649 -0.8704847,0 -1.5875002,0.71702 -1.5875004,1.5875 0,0.42457 0.1712478,0.81196 0.4470011,1.09813 l -1.8391643,3.67781 c -0.064188,-0.008 -0.1291254,-0.0134 -0.1953369,-0.0134 -0.2434341,0 -0.4739907,0.0578 -0.6810954,0.15762 l -1.0640177,-1.06402 c 0.099825,-0.20711 0.1576131,-0.43766 0.1576131,-0.6811 -3e-7,-0.87048 -0.7170158,-1.5875 -1.5875001,-1.5875 -0.8704842,0 -1.5874997,0.71702 -1.5875,1.5875 3e-7,0.87048 0.7170158,1.5875 1.5875,1.5875 0.2435985,0 0.4744006,-0.0577 0.6816122,-0.15761 l 1.063501,1.0635 c -0.099951,0.20721 -0.1576131,0.43802 -0.1576131,0.68161 2e-7,0.87048 0.7170158,1.5875 1.5875,1.5875 0.8704842,0 1.5874998,-0.71702 1.5875001,-1.5875 -3e-7,-0.42456 -0.1712479,-0.81196 -0.4470012,-1.09812 l 1.8396806,-3.67781 c 0.06403,0.008 0.128784,0.0134 0.194821,0.0134 0.870484,0 1.587499,-0.71702 1.5875,-1.5875 0,-0.0662 -0.0054,-0.13115 -0.01344,-0.19533 l 1.561145,-0.78083 c 0.286165,0.27575 0.673555,0.447 1.098124,0.447 0.870484,0 1.5875,-0.71701 1.5875,-1.5875 0,-0.87048 -0.717016,-1.5875 -1.5875,-1.5875 z m 0,1.05833 c 0.298519,0 0.529167,0.23065 0.529167,0.52917 0,0.29852 -0.230648,0.52916 -0.529167,0.52916 -0.298518,0 -0.529167,-0.23064 -0.529167,-0.52916 0,-0.29852 0.230649,-0.52917 0.529167,-0.52917 z m -4.233333,2.11667 c 0.298518,0 0.529166,0.23064 0.529166,0.52916 0,0.29852 -0.230648,0.52917 -0.529166,0.52917 -0.298519,0 -0.529167,-0.23065 -0.529167,-0.52917 0,-0.29852 0.230648,-0.52916 0.529167,-0.52916 z m -6.3500006,3.175 c 0.2985186,0 0.5291667,0.23064 0.5291667,0.52916 0,0.29852 -0.2306481,0.52917 -0.5291667,0.52917 -0.2985185,0 -0.5291666,-0.23065 -0.5291666,-0.52917 0,-0.29852 0.2306481,-0.52916 0.5291666,-0.52916 z m 3.1750001,3.175 c 0.2985186,0 0.5291667,0.23064 0.5291667,0.52916 0,0.29852 -0.2306481,0.52917 -0.5291667,0.52917 -0.2985185,0 -0.5291667,-0.23065 -0.5291667,-0.52917 0,-0.29852 0.2306482,-0.52916 0.5291667,-0.52916 z"
    />
  </g>
</svg>
